<!DOCTYPE svg PUBLIC "-//W3C//DTD SVG 1.1//EN" "http://www.w3.org/Graphics/SVG/1.1/DTD/svg11.dtd">
<!-- Uploaded to: SVG Repo, www.svgrepo.com, Transformed by: SVG Repo Mixer Tools -->
<svg fill="#517494" width="800px" height="800px" viewBox="0 0 512 512" data-name="Layer 1" id="Layer_1" xmlns="http://www.w3.org/2000/svg" stroke="#517494">
<g id="SVGRepo_bgCarrier" stroke-width="0"/>
<g id="SVGRepo_tracerCarrier" stroke-linecap="round" stroke-linejoin="round"/>
<g id="SVGRepo_iconCarrier">
<title/>
<path d="M455.8,87.43h0c.05-.16.15-.3.19-.47a5.49,5.49,0,0,0,0-.58,6.64,6.64,0,0,0,0-1.18c0-.18,0-.37,0-.55s0-.09,0-.13a3,3,0,0,0-.21-.49,5.12,5.12,0,0,0-.1-.54,6.06,6.06,0,0,0-.35-.53,1.76,1.76,0,0,0-.09-.2c-.05-.09-.05-.18-.1-.26h0a12.58,12.58,0,0,0-1.27-1.31c-.09-.07-.15-.17-.24-.23s-.09-.1-.14-.14-.34-.13-.5-.22a6.24,6.24,0,0,0-1.1-.46c-.19-.05-.35-.17-.54-.2s-.25,0-.37,0h-.12a5.53,5.53,0,0,0-1.15,0c-.22,0-.43,0-.65,0,0,0-.08,0-.12,0q-104.54,22-175.72,53.15C208.3,42.7,68.52,26.19,62.52,25.52c-.15,0-.27.1-.42.1a5.94,5.94,0,0,0-3.32.78l0,0a5.92,5.92,0,0,0-2.2,2.61c0,.13-.2.17-.25.3s0,.15,0,.23-.14.23-.18.36a5.85,5.85,0,0,0,.08,3,4.27,4.27,0,0,0,.21.6,5.81,5.81,0,0,0,2,2.74s0,.06,0,.07C130.61,87,155.46,193.47,159,210.48c-12.53,14.68-21.9,30.16-27.68,46.53-21.45,60.68,11.77,111.18,20.15,122.56-23,57.47-28.89,99.11-29,100.19a6,6,0,0,0,5.15,6.68,6.68,6.68,0,0,0,.76,0,6,6,0,0,0,5.92-5.2c.13-1,5.86-41.75,28.43-97.92.16.09.26.23.43.31a152.94,152.94,0,0,0,58.09,12,110.83,110.83,0,0,0,43.4-8.4c28.47-12.05,49.49-36.7,62.47-73.23,64.31-181,125.7-222.87,126.3-223.28,0,0,0,0,.06-.06a6.14,6.14,0,0,0,.47-.42,6.35,6.35,0,0,0,.81-.83c.11-.14.27-.24.36-.38a4.9,4.9,0,0,0,.24-.52A5.65,5.65,0,0,0,455.8,87.43ZM262.22,138.11c-10.94,5.07-21.42,10.28-31.07,15.69A331.5,331.5,0,0,0,119.22,49.91C164.67,63.1,225.9,89.13,262.22,138.11ZM91.91,49.5a321,321,0,0,1,129,110.43c-20.56,12.42-38,25.66-52,39.77C162.34,172.16,141.27,100,91.91,49.5ZM142.59,261c23.18-65.58,110.27-119.12,252.87-156.23C261.79,175.88,192.31,284.29,157,366.32,146.42,349.44,125.93,308.11,142.59,261Zm173.29,49c-11.8,33.23-30.58,55.51-55.79,66.22-43.16,18.34-91.52-3.18-92-3.41a6.11,6.11,0,0,0-.94-.22c36-84.36,109.3-198.22,254.71-267.73C397.14,133.79,357.22,193.65,315.88,310Z"/>
</g>
</svg>